<svg id="图层_1" data-name="图层 1" xmlns="http://www.w3.org/2000/svg" viewBox="0 0 512 512"><defs><style>.cls-1,.cls-2,.cls-3{fill:#80ceff;stroke:#000;stroke-miterlimit:10;}.cls-1{stroke-width:3px;}.cls-2{stroke-width:2px;}.cls-3{stroke-width:0.75px;}</style></defs><path class="cls-1" d="M511.77,212.61c0-13-6.56-19.77-18.22-23.93-50.21-18-73.41-59.88-63.77-114.7,2.12-12.24.85-22.46-10.06-29.09C395.35,30.06,371.3,14.56,346.09,1.64c-6.35-3.26-19.81-.79-24.89,4.6-34.43,36.85-95.56,36.29-129.56,0C186.55.85,173.1-1.85,166.85,1.41,141.21,14.67,116.64,30.51,92,45.9c-9.85,6.18-11.33,15.5-8.9,27.52,10.6,52.35-13.77,98.18-61.65,114.47-14.3,4.83-20.76,13.26-21,28C0,240.69.11,265.52,0,290.35-.1,308.21,7.2,318,24.26,323.6c39.62,13.14,63.46,52.24,61,96.27-.42,8.65-2.33,17.19-4.13,29.77,2.33,3.26,5.19,10.79,10.49,14.27,23.94,15.61,48.3,30.33,72.88,44.82,10.59,6.29,19.6,2.92,28.81-5.17q63.09-55.26,125.64-.33c9.11,8,18.22,11.9,28.82,5.61,24.57-14.49,49.36-28.64,72.67-45,5.82-4.16,9.85-17.19,8.9-25.28-7.63-60.44,11.76-95.71,65.25-118.07,7.1-2.92,15.68-13.25,16.11-20.67,2-28.87,1-58.08,1-87.17ZM467.92,244c-.32,8.09-.21,16.18-.11,24.27.32,12.47-4.66,19.09-15.89,25.16-44.81,24.15-68.86,63.36-66.42,117.5.74,16.07-3.07,25.95-16.53,32.58-7.41,3.6-14.09,9.66-21.82,11.91-6.25,1.8-15.15,1.91-20.23-1.46-47.14-32-93.54-32-140.68-.22-5.2,3.48-13.67,3-20.24,1.91-5.51-.9-10.38-5.51-15.78-8.09-16.85-8.2-24.26-19.33-23.31-41.57,2.23-51.79-22.56-89.31-65.57-112.22C48.63,287,43.86,279.11,45,265.18a77.69,77.69,0,0,0-.1-14.94c-1.8-17.41,4.34-27,20-35.72,43.12-24.27,65.47-63.59,62.18-116.27-1-14.72,2.65-23.71,14.62-29.88a183.65,183.65,0,0,0,21.51-12.81c9.11-6.29,16.21-4.83,25.21,1.8,41.84,30.89,93.75,31.23,135.39.45,9.85-7.31,17.37-7.76,26.8-1.58,7,4.61,14,9.33,21.5,12.7,15.79,7,14.51,20.44,12.4,33.7.84,52.24,23,90.32,65.78,113.57,12.4,6.74,18.12,13.82,17.59,27.75Z"/><path class="cls-2" d="M151.59,254.29c.32-61.79,51-112.79,108.8-109.65C320.24,147.9,366,201.82,360.92,262.71c-1.27,14.72-4,29.1-21.29,28-16.95-1.23-18.43-14.94-17.59-30.33,2-39.65-22.45-69.76-59.43-74.59-32.2-4.27-64.51,20.78-71.61,55.61-7,34.26,13,70.1,45.77,80.09,9.32,2.81,19.7,2.7,29.55,2.36,12.93-.33,22.78,3.82,23.84,18.43s-8.27,20.44-20.87,22.13c-62.82,8.53-118-43-117.7-110.09Z"/><path class="cls-3" d="M214.4,219.11h37.34v15.56H226.93v17.16h21.55v14.53H226.93v17.28h24.81V299.2H214.4Z"/><path class="cls-3" d="M267.61,287.3a27.24,27.24,0,0,1-8.4-12.45,55.72,55.72,0,0,1-2.9-19,57.06,57.06,0,0,1,3-19.09,29.48,29.48,0,0,1,8.48-13.05,19.22,19.22,0,0,1,25,0,29.24,29.24,0,0,1,8.61,13,56.37,56.37,0,0,1,3,19.19q0,11.7-3.31,20t-9.3,12.25q1.59,4.69,3.4,11.1h-9.87c-1-3.2-1.81-5.77-2.47-7.7a20.89,20.89,0,0,1-2.47.2A19.89,19.89,0,0,1,267.61,287.3Zm.94-19.15a19.77,19.77,0,0,0,4.7,8.2,9.82,9.82,0,0,0,7.14,2.95,9.65,9.65,0,0,0,7-2.95,20.07,20.07,0,0,0,4.67-8.2,39.92,39.92,0,0,0,1.7-12.25A42.07,42.07,0,0,0,292.16,244a24.83,24.83,0,0,0-4.67-9.15,9.17,9.17,0,0,0-7.24-3.6,9,9,0,0,0-6.93,3.45,24.88,24.88,0,0,0-4.74,9,40.77,40.77,0,0,0-1.73,12.24A39.62,39.62,0,0,0,268.55,268.15Z"/></svg>